<svg width="16.000000" height="16.000000" viewBox="0 0 16 16" fill="none" xmlns="http://www.w3.org/2000/svg" xmlns:xlink="http://www.w3.org/1999/xlink">
	<desc>
			Created with Pixso.
	</desc>
	<defs/>
	<path id="Vector" d="M12.66 6.16C14 6.16 14.66 5.5 14.66 4.16L14.66 2.83C14.66 1.5 14 0.83 12.66 0.83L11.33 0.83C10 0.83 9.33 1.5 9.33 2.83L9.33 4.16C9.33 5.5 10 6.16 11.33 6.16L12.66 6.16Z" stroke="#92929D" stroke-opacity="1.000000" stroke-width="1.500000" stroke-linejoin="round"/>
	<path id="Vector" d="M4.66 14.16C6 14.16 6.66 13.5 6.66 12.16L6.66 10.83C6.66 9.5 6 8.83 4.66 8.83L3.33 8.83C2 8.83 1.33 9.5 1.33 10.83L1.33 12.16C1.33 13.5 2 14.16 3.33 14.16L4.66 14.16Z" stroke="#92929D" stroke-opacity="1.000000" stroke-width="1.500000" stroke-linejoin="round"/>
	<path id="Vector" d="M4 6.16C2.52 6.16 1.33 4.97 1.33 3.5C1.33 2.02 2.52 0.83 4 0.83C5.47 0.83 6.66 2.02 6.66 3.5C6.66 4.97 5.47 6.16 4 6.16Z" stroke="#92929D" stroke-opacity="1.000000" stroke-width="1.500000" stroke-linejoin="round"/>
	<path id="Vector" d="M12 14.16C10.52 14.16 9.33 12.97 9.33 11.5C9.33 10.02 10.52 8.83 12 8.83C13.47 8.83 14.66 10.02 14.66 11.5C14.66 12.97 13.47 14.16 12 14.16Z" stroke="#92929D" stroke-opacity="1.000000" stroke-width="1.500000" stroke-linejoin="round"/>
	<g opacity="0.000000"/>
</svg>
