<svg width="166.000000" height="32.000000" viewBox="0 0 166 32" fill="none" xmlns="http://www.w3.org/2000/svg" xmlns:xlink="http://www.w3.org/1999/xlink">
	<desc>
			Created with Pixso.
	</desc>
	<defs>
		<clipPath id="clip0_541">
			<rect id="Logo" width="166.000000" height="32.000000" fill="white" fill-opacity="0"/>
		</clipPath>
	</defs>
	<rect id="Logo" width="166.000000" height="32.000000" fill="#FFFFFF" fill-opacity="0"/>
	<g clip-path="url(#clip0_541)">
		<path id="Square" d="M73.98 9.4Q74.36 9.59 74.83 9.59Q75.33 9.59 75.71 9.39Q75.9 9.28 76.06 9.12Q76.29 8.91 76.41 8.65Q76.56 8.34 76.56 7.96Q76.56 7.57 76.41 7.25Q76.28 6.99 76.06 6.79Q75.9 6.63 75.71 6.52Q75.33 6.32 74.83 6.32Q74.36 6.32 73.98 6.51Q73.78 6.62 73.6 6.79Q73.39 6.99 73.27 7.24Q73.11 7.56 73.11 7.96Q73.11 8.34 73.26 8.66Q73.38 8.91 73.6 9.12Q73.78 9.29 73.98 9.4ZM158.02 9.4Q158.4 9.59 158.87 9.59Q159.37 9.59 159.75 9.39Q159.94 9.28 160.1 9.12Q160.33 8.91 160.45 8.65Q160.6 8.34 160.6 7.96Q160.6 7.57 160.45 7.25Q160.32 6.99 160.1 6.79Q159.94 6.63 159.75 6.52Q159.37 6.32 158.87 6.32Q158.4 6.32 158.02 6.51Q157.82 6.62 157.64 6.79Q157.43 6.99 157.31 7.24Q157.15 7.56 157.15 7.96Q157.15 8.34 157.3 8.66Q157.42 8.91 157.64 9.12Q157.82 9.29 158.02 9.4ZM87.31 11.23Q86.39 10.75 85.22 10.75Q84.11 10.75 83.22 11.16Q82.43 11.52 81.92 12.12Q81.84 12.2 81.77 12.29L81.77 7.2L78.98 7.2L78.98 22L81.77 22L81.77 15.88Q81.77 14.57 82.42 13.87Q82.43 13.86 82.44 13.85Q82.6 13.68 82.79 13.55Q83.39 13.13 84.27 13.13Q85.13 13.13 85.71 13.53Q85.91 13.66 86.08 13.85Q86.74 14.55 86.74 15.88L86.74 22L89.53 22L89.53 15.5Q89.53 14 88.98 12.93Q88.6 12.17 88 11.68Q87.74 11.47 87.45 11.31Q87.38 11.27 87.31 11.23ZM46.77 19.77L42.17 19.77L42.17 8.04L39.38 8.04L39.38 22L46.77 22L46.77 19.77ZM51.03 21.68Q52.14 22.18 53.47 22.18Q54.85 22.18 55.99 21.67Q56.2 21.58 56.4 21.47Q57.02 21.13 57.51 20.67Q58.08 20.15 58.48 19.46Q58.55 19.34 58.62 19.22Q59.26 18 59.26 16.45Q59.26 14.86 58.59 13.62Q58.55 13.54 58.5 13.46Q58.1 12.76 57.55 12.24Q57.06 11.78 56.45 11.45Q56.19 11.3 55.91 11.19Q54.83 10.74 53.56 10.74Q52.28 10.74 51.19 11.19Q50.91 11.3 50.65 11.45Q50.07 11.77 49.59 12.21Q49.01 12.74 48.6 13.46Q48.56 13.52 48.52 13.59Q47.85 14.84 47.85 16.45Q47.85 18.15 48.58 19.44Q48.58 19.45 48.58 19.46Q48.99 20.18 49.58 20.73Q50.03 21.15 50.59 21.47Q50.81 21.59 51.03 21.68ZM92.14 13.44Q91.47 14.73 91.47 16.41Q91.47 18.11 92.14 19.43Q92.67 20.46 93.5 21.13Q93.72 21.31 93.96 21.46Q94.43 21.75 94.94 21.92Q95.68 22.18 96.51 22.18Q97.75 22.18 98.7 21.67Q99.65 21.16 100.2 20.37L100.2 22L103.02 22L103.02 10.92L100.2 10.92L100.2 12.49Q99.63 11.74 98.7 11.24Q97.77 10.74 96.53 10.74Q95.6 10.74 94.77 11.04Q94.35 11.2 93.96 11.44Q93.72 11.59 93.5 11.76Q92.67 12.41 92.14 13.44ZM126.21 21.68Q127.32 22.18 128.65 22.18Q130.03 22.18 131.17 21.67Q131.38 21.58 131.58 21.47Q132.2 21.13 132.69 20.67Q133.26 20.15 133.66 19.46Q133.73 19.34 133.8 19.22Q134.44 18 134.44 16.45Q134.44 14.86 133.77 13.62Q133.73 13.54 133.68 13.46Q133.28 12.76 132.73 12.24Q132.24 11.78 131.63 11.45Q131.37 11.3 131.09 11.19Q130.01 10.74 128.74 10.74Q127.46 10.74 126.37 11.19Q126.09 11.3 125.83 11.45Q125.25 11.77 124.77 12.21Q124.19 12.74 123.78 13.46Q123.74 13.52 123.7 13.59Q123.03 14.84 123.03 16.45Q123.03 18.15 123.76 19.44L123.76 19.46Q124.17 20.18 124.76 20.73Q125.21 21.15 125.77 21.47Q125.99 21.59 126.21 21.68ZM119.07 11.38Q118.06 10.75 116.66 10.75Q115.72 10.75 114.92 11.09Q114.83 11.12 114.75 11.16Q114.1 11.47 113.62 11.95Q113.46 12.11 113.32 12.29L113.32 10.92L110.52 10.92L110.52 22L113.32 22L113.32 15.88Q113.32 14.57 113.96 13.87Q113.97 13.86 113.98 13.85Q114.14 13.68 114.33 13.55Q114.93 13.13 115.82 13.13Q116.67 13.13 117.25 13.53Q117.45 13.66 117.62 13.85Q118.28 14.55 118.28 15.88L118.28 22L121.07 22L121.07 15.5Q121.07 13.48 120.09 12.27Q119.98 12.13 119.85 12Q119.5 11.64 119.07 11.38ZM152.82 11.43Q151.75 10.75 150.26 10.75Q149.58 10.75 148.97 10.94Q148.48 11.08 148.03 11.34Q147.25 11.77 146.75 12.42Q146.59 12.63 146.45 12.87Q146.17 12.35 145.76 11.95Q145.37 11.57 144.88 11.31Q144.82 11.28 144.77 11.25Q143.79 10.75 142.56 10.75Q141.62 10.75 140.82 11.09Q140.75 11.12 140.69 11.16Q140.03 11.47 139.55 11.95Q139.42 12.1 139.3 12.25L139.3 10.92L136.5 10.92L136.5 22L139.3 22L139.3 15.88Q139.3 14.61 139.92 13.93Q139.94 13.9 139.96 13.88Q140.1 13.75 140.25 13.64Q140.87 13.2 141.8 13.2Q142.69 13.2 143.28 13.62Q143.45 13.73 143.6 13.88Q143.61 13.89 143.61 13.9Q144.26 14.59 144.26 15.88L144.26 22L147.05 22L147.05 15.88Q147.05 14.61 147.68 13.93Q147.7 13.9 147.72 13.88Q147.88 13.72 148.06 13.6Q148.66 13.2 149.53 13.2Q150.43 13.2 151.02 13.62Q151.19 13.73 151.34 13.88Q151.35 13.89 151.35 13.9Q152 14.59 152 15.88L152 22L154.79 22L154.79 15.5Q154.79 13.54 153.84 12.34Q153.7 12.16 153.54 12Q153.21 11.67 152.82 11.43ZM65.06 27.23L71.91 10.92L68.93 10.92L66.03 18.66L63.18 10.92L60.03 10.92L64.48 21.72L62.07 27.23L65.06 27.23ZM76.21 22L76.21 10.92L73.42 10.92L73.42 22L76.21 22ZM160.25 22L160.25 10.92L157.46 10.92L157.46 22L160.25 22ZM54.21 19.64Q53.85 19.73 53.47 19.73Q52.81 19.73 52.27 19.47Q51.83 19.26 51.48 18.88Q50.7 18.04 50.7 16.45Q50.7 14.93 51.45 14.08Q51.48 14.05 51.51 14.03Q51.89 13.63 52.35 13.42Q52.88 13.18 53.51 13.18Q54.14 13.18 54.66 13.41Q55.14 13.62 55.54 14.03Q55.59 14.08 55.64 14.13Q56.37 14.97 56.37 16.45Q56.37 17.51 55.97 18.25Q55.65 18.85 55.16 19.2Q55.04 19.29 54.9 19.37Q54.57 19.55 54.21 19.64ZM129.39 19.64Q129.03 19.73 128.65 19.73Q127.99 19.73 127.45 19.47Q127.02 19.26 126.66 18.88Q125.88 18.04 125.88 16.45Q125.88 14.93 126.63 14.08Q126.66 14.05 126.69 14.03Q127.07 13.63 127.53 13.42Q128.06 13.18 128.69 13.18Q129.32 13.18 129.84 13.41Q130.33 13.62 130.72 14.03Q130.77 14.08 130.82 14.13Q131.55 14.97 131.55 16.45Q131.55 17.51 131.15 18.25Q130.83 18.85 130.34 19.2Q130.22 19.29 130.08 19.37Q129.75 19.55 129.39 19.64ZM99.79 14.71Q100.2 15.44 100.2 16.45Q100.2 17.47 99.79 18.21Q99.51 18.72 99.1 19.06Q98.92 19.21 98.72 19.32Q98.37 19.52 98 19.62Q97.64 19.71 97.26 19.71Q96.94 19.71 96.63 19.64Q96.21 19.55 95.82 19.31Q95.7 19.24 95.59 19.16Q95.08 18.78 94.75 18.17Q94.34 17.41 94.34 16.41Q94.34 15.41 94.75 14.69Q95.09 14.07 95.61 13.71Q95.71 13.64 95.82 13.58Q96.08 13.42 96.37 13.33Q96.79 13.2 97.26 13.2Q97.64 13.2 98 13.29Q98.37 13.39 98.72 13.59Q98.91 13.7 99.08 13.84Q99.51 14.19 99.79 14.71Z" fill="#44444F" fill-opacity="1.000000" fill-rule="evenodd"/>
		<rect id="Rectangle" y="1.000000" rx="10.000000" width="28.000000" height="28.000000" fill="#D8D8D8" fill-opacity="0"/>
		<rect id="Rectangle" x="2.000000" y="3.000000" rx="10.000000" width="24.000000" height="24.000000" stroke="#0073FF" stroke-opacity="1.000000" stroke-width="4.000000"/>
		<rect id="Rectangle Copy" x="11.000000" y="2.000000" rx="8.000000" width="16.000000" height="16.000000" fill="#D8D8D8" fill-opacity="0"/>
		<rect id="Rectangle Copy" x="13.000000" y="4.000000" rx="6.000000" width="12.000000" height="12.000000" stroke="#0073FF" stroke-opacity="1.000000" stroke-width="4.000000"/>
	</g>
</svg>
