<svg width="16.000000" height="16.000000" viewBox="0 0 16 16" fill="none" xmlns="http://www.w3.org/2000/svg" xmlns:xlink="http://www.w3.org/1999/xlink">
	<desc>
			Created with Pixso.
	</desc>
	<defs/>
	<path id="Vector" d="M7.88 6.74C6.3 6.69 5.04 5.39 5.04 3.79C5.04 2.16 6.36 0.83 8 0.83C9.63 0.83 10.96 2.16 10.96 3.79C10.95 5.39 9.69 6.69 8.1 6.74C8.04 6.74 7.96 6.74 7.88 6.74Z" stroke="#0062FF" stroke-opacity="1.000000" stroke-width="1.500000" stroke-linejoin="round"/>
	<path id="Vector" d="M4.77 13.12C6.6 14.34 9.61 14.34 11.44 13.12C13.06 12.04 13.06 10.28 11.44 9.2C9.62 7.98 6.61 7.98 4.77 9.2C3.16 10.28 3.16 12.04 4.77 13.12Z" stroke="#0062FF" stroke-opacity="1.000000" stroke-width="1.500000" stroke-linejoin="round"/>
	<g opacity="0.000000"/>
</svg>
